<svg width="170" height="224" viewBox="0 0 170 224" fill="none" xmlns="http://www.w3.org/2000/svg">
<path d="M46.5885 202.12C48.0045 202.12 49.1025 202.456 49.8825 203.128C50.6745 203.788 51.0705 204.67 51.0705 205.774C51.0705 206.986 50.6805 207.91 49.9005 208.546C49.1205 209.182 48.0225 209.5 46.6065 209.5L46.3185 209.662H43.9605V214H40.9185V202.12H46.5885ZM46.1565 207.466C46.7565 207.466 47.2065 207.346 47.5065 207.106C47.8065 206.866 47.9565 206.482 47.9565 205.954C47.9565 205.438 47.8065 205.06 47.5065 204.82C47.2065 204.58 46.7565 204.46 46.1565 204.46H43.9605V207.466H46.1565ZM47.9745 208.114L51.7725 214H48.3525L45.3105 208.798L47.9745 208.114ZM57.3816 214.18C56.3856 214.18 55.5216 213.994 54.7896 213.622C54.0696 213.25 53.5116 212.716 53.1156 212.02C52.7196 211.324 52.5216 210.484 52.5216 209.5C52.5216 208.516 52.7196 207.676 53.1156 206.98C53.5116 206.284 54.0636 205.75 54.7716 205.378C55.4916 205.006 56.3136 204.82 57.2376 204.82C58.1856 204.82 58.9896 205.006 59.6496 205.378C60.3216 205.738 60.8316 206.242 61.1796 206.89C61.5276 207.526 61.7016 208.258 61.7016 209.086C61.7016 209.302 61.6956 209.518 61.6836 209.734C61.6716 209.95 61.6536 210.13 61.6296 210.274H54.5016V208.636H60.2796L58.8216 209.194C58.8216 208.474 58.6896 207.922 58.4256 207.538C58.1736 207.154 57.7776 206.962 57.2376 206.962C56.8536 206.962 56.5236 207.052 56.2476 207.232C55.9836 207.412 55.7796 207.694 55.6356 208.078C55.5036 208.462 55.4376 208.954 55.4376 209.554C55.4376 210.142 55.5156 210.622 55.6716 210.994C55.8276 211.354 56.0496 211.618 56.3376 211.786C56.6256 211.942 56.9736 212.02 57.3816 212.02C57.8376 212.02 58.1976 211.93 58.4616 211.75C58.7376 211.57 58.9416 211.318 59.0736 210.994L61.5216 211.804C61.3536 212.32 61.0596 212.758 60.6396 213.118C60.2316 213.466 59.7396 213.73 59.1636 213.91C58.5996 214.09 58.0056 214.18 57.3816 214.18ZM66.4374 201.184V210.94C66.4374 211.336 66.5034 211.618 66.6354 211.786C66.7674 211.954 66.9894 212.038 67.3014 212.038C67.4814 212.038 67.6314 212.026 67.7514 212.002C67.8714 211.978 68.0154 211.942 68.1834 211.894L67.9854 213.73C67.7694 213.862 67.4874 213.97 67.1394 214.054C66.7914 214.138 66.4494 214.18 66.1134 214.18C65.1534 214.18 64.4574 213.958 64.0254 213.514C63.5934 213.07 63.3774 212.344 63.3774 211.336V201.184H66.4374ZM74.4647 208.294C74.4647 207.874 74.3447 207.544 74.1047 207.304C73.8767 207.052 73.5647 206.926 73.1687 206.926C72.7727 206.926 72.4307 207.028 72.1427 207.232C71.8667 207.424 71.6747 207.772 71.5667 208.276L68.9747 207.664C69.1427 206.8 69.5867 206.11 70.3067 205.594C71.0267 205.078 72.0407 204.82 73.3487 204.82C74.2247 204.82 74.9687 204.952 75.5807 205.216C76.2047 205.468 76.6787 205.852 77.0027 206.368C77.3387 206.872 77.5067 207.496 77.5067 208.24V211.534C77.5067 212.002 77.7167 212.236 78.1367 212.236C78.3527 212.236 78.5267 212.212 78.6587 212.164L78.4787 213.91C78.1187 214.078 77.6807 214.162 77.1647 214.162C76.6967 214.162 76.2827 214.09 75.9227 213.946C75.5627 213.79 75.2807 213.562 75.0767 213.262C74.8727 212.95 74.7707 212.56 74.7707 212.092V211.984L75.1127 211.858C75.1127 212.374 74.9567 212.806 74.6447 213.154C74.3447 213.502 73.9487 213.76 73.4567 213.928C72.9767 214.096 72.4727 214.18 71.9447 214.18C71.3327 214.18 70.7987 214.084 70.3427 213.892C69.8867 213.7 69.5327 213.424 69.2807 213.064C69.0407 212.692 68.9207 212.236 68.9207 211.696C68.9207 211.048 69.1127 210.514 69.4967 210.094C69.8927 209.662 70.5107 209.362 71.3507 209.194L74.7527 208.492L74.7347 210.112L73.0067 210.472C72.6467 210.544 72.3767 210.652 72.1967 210.796C72.0287 210.928 71.9447 211.132 71.9447 211.408C71.9447 211.672 72.0407 211.87 72.2327 212.002C72.4247 212.134 72.6527 212.2 72.9167 212.2C73.1207 212.2 73.3127 212.17 73.4927 212.11C73.6847 212.05 73.8527 211.96 73.9967 211.84C74.1407 211.708 74.2547 211.546 74.3387 211.354C74.4227 211.162 74.4647 210.934 74.4647 210.67V208.294ZM83.277 202.138V210.796C83.277 211.228 83.379 211.54 83.583 211.732C83.799 211.912 84.093 212.002 84.465 212.002C84.753 212.002 84.999 211.972 85.203 211.912C85.419 211.84 85.611 211.738 85.779 211.606L86.103 213.496C85.803 213.712 85.425 213.88 84.969 214C84.513 214.12 84.045 214.18 83.565 214.18C82.881 214.18 82.287 214.084 81.783 213.892C81.291 213.7 80.907 213.394 80.631 212.974C80.367 212.554 80.229 211.996 80.217 211.3V202.984L83.277 202.138ZM85.959 205V207.178H78.669V205H85.959ZM91.6564 204.82C92.6044 204.82 93.4324 205.006 94.1404 205.378C94.8604 205.738 95.4184 206.272 95.8144 206.98C96.2224 207.676 96.4264 208.516 96.4264 209.5C96.4264 210.484 96.2224 211.33 95.8144 212.038C95.4184 212.734 94.8604 213.268 94.1404 213.64C93.4324 214 92.6044 214.18 91.6564 214.18C90.7324 214.18 89.9104 214 89.1904 213.64C88.4704 213.268 87.9064 212.734 87.4984 212.038C87.1024 211.33 86.9044 210.484 86.9044 209.5C86.9044 208.516 87.1024 207.676 87.4984 206.98C87.9064 206.272 88.4704 205.738 89.1904 205.378C89.9104 205.006 90.7324 204.82 91.6564 204.82ZM91.6564 206.998C91.3084 206.998 91.0084 207.082 90.7564 207.25C90.5044 207.418 90.3124 207.688 90.1804 208.06C90.0484 208.432 89.9824 208.912 89.9824 209.5C89.9824 210.088 90.0484 210.568 90.1804 210.94C90.3124 211.3 90.5044 211.57 90.7564 211.75C91.0084 211.918 91.3084 212.002 91.6564 212.002C92.0164 212.002 92.3224 211.918 92.5744 211.75C92.8264 211.57 93.0184 211.3 93.1504 210.94C93.2824 210.568 93.3484 210.088 93.3484 209.5C93.3484 208.912 93.2824 208.432 93.1504 208.06C93.0184 207.688 92.8264 207.418 92.5744 207.25C92.3224 207.082 92.0164 206.998 91.6564 206.998ZM91.4764 200.716H94.3204L92.5024 203.83H90.2704L91.4764 200.716ZM98.1478 214V205H100.848L100.974 206.944C101.202 206.272 101.538 205.75 101.982 205.378C102.438 205.006 103.014 204.82 103.71 204.82C103.938 204.82 104.13 204.838 104.286 204.874C104.454 204.91 104.586 204.958 104.682 205.018L104.376 207.538C104.256 207.49 104.1 207.454 103.908 207.43C103.728 207.394 103.506 207.376 103.242 207.376C102.882 207.376 102.546 207.454 102.234 207.61C101.922 207.766 101.67 208 101.478 208.312C101.298 208.612 101.208 208.996 101.208 209.464V214H98.1478ZM107.412 203.956C106.788 203.956 106.332 203.842 106.044 203.614C105.768 203.374 105.63 203.002 105.63 202.498C105.63 201.982 105.768 201.61 106.044 201.382C106.332 201.142 106.788 201.022 107.412 201.022C108.024 201.022 108.474 201.142 108.762 201.382C109.05 201.61 109.194 201.982 109.194 202.498C109.194 203.002 109.05 203.374 108.762 203.614C108.474 203.842 108.024 203.956 107.412 203.956ZM108.942 205V214H105.882V205H108.942ZM115.404 204.82C116.352 204.82 117.18 205.006 117.888 205.378C118.608 205.738 119.166 206.272 119.562 206.98C119.97 207.676 120.174 208.516 120.174 209.5C120.174 210.484 119.97 211.33 119.562 212.038C119.166 212.734 118.608 213.268 117.888 213.64C117.18 214 116.352 214.18 115.404 214.18C114.48 214.18 113.658 214 112.938 213.64C112.218 213.268 111.654 212.734 111.246 212.038C110.85 211.33 110.652 210.484 110.652 209.5C110.652 208.516 110.85 207.676 111.246 206.98C111.654 206.272 112.218 205.738 112.938 205.378C113.658 205.006 114.48 204.82 115.404 204.82ZM115.404 206.998C115.056 206.998 114.756 207.082 114.504 207.25C114.252 207.418 114.06 207.688 113.928 208.06C113.796 208.432 113.73 208.912 113.73 209.5C113.73 210.088 113.796 210.568 113.928 210.94C114.06 211.3 114.252 211.57 114.504 211.75C114.756 211.918 115.056 212.002 115.404 212.002C115.764 212.002 116.07 211.918 116.322 211.75C116.574 211.57 116.766 211.3 116.898 210.94C117.03 210.568 117.096 210.088 117.096 209.5C117.096 208.912 117.03 208.432 116.898 208.06C116.766 207.688 116.574 207.418 116.322 207.25C116.07 207.082 115.764 206.998 115.404 206.998ZM125.676 214.18C124.776 214.18 123.936 214.036 123.156 213.748C122.388 213.448 121.752 213.022 121.248 212.47L122.688 210.778C122.988 211.162 123.384 211.486 123.876 211.75C124.38 212.002 124.938 212.128 125.55 212.128C125.922 212.128 126.228 212.074 126.468 211.966C126.708 211.858 126.828 211.69 126.828 211.462C126.828 211.294 126.768 211.162 126.648 211.066C126.528 210.958 126.288 210.868 125.928 210.796L124.668 210.544C123.54 210.316 122.736 209.98 122.256 209.536C121.788 209.08 121.554 208.486 121.554 207.754C121.554 207.262 121.704 206.794 122.004 206.35C122.304 205.894 122.766 205.528 123.39 205.252C124.014 204.964 124.812 204.82 125.784 204.82C126.696 204.82 127.5 204.952 128.196 205.216C128.892 205.48 129.444 205.864 129.852 206.368L128.394 208.024C128.106 207.664 127.734 207.382 127.278 207.178C126.822 206.974 126.366 206.872 125.91 206.872C125.622 206.872 125.376 206.902 125.172 206.962C124.98 207.01 124.836 207.082 124.74 207.178C124.644 207.274 124.596 207.394 124.596 207.538C124.596 207.694 124.668 207.832 124.812 207.952C124.968 208.06 125.25 208.156 125.658 208.24L127.296 208.564C128.22 208.732 128.886 209.038 129.294 209.482C129.702 209.926 129.906 210.46 129.906 211.084C129.906 211.672 129.75 212.2 129.438 212.668C129.126 213.136 128.658 213.508 128.034 213.784C127.41 214.048 126.624 214.18 125.676 214.18Z" fill="white"/>
<path d="M4.32 181.5V155.1H22.84V158.1H7.52V166.62H19.44V169.62H7.52V178.5H23.44V181.5H4.32ZM29.2278 181.5V161.5H32.0278L32.3078 165.98L31.7878 165.54C32.2145 164.473 32.7878 163.62 33.5078 162.98C34.2278 162.313 35.0545 161.833 35.9878 161.54C36.9478 161.247 37.9345 161.1 38.9478 161.1C40.3878 161.1 41.6945 161.38 42.8678 161.94C44.0411 162.473 44.9745 163.3 45.6678 164.42C46.3878 165.54 46.7478 166.967 46.7478 168.7V181.5H43.5478V169.82C43.5478 167.607 43.0678 166.073 42.1078 165.22C41.1745 164.34 40.0145 163.9 38.6278 163.9C37.6678 163.9 36.7078 164.127 35.7478 164.58C34.7878 165.033 33.9878 165.767 33.3478 166.78C32.7345 167.793 32.4278 169.153 32.4278 170.86V181.5H29.2278ZM70.8334 157.82L71.5534 160.66C71.5268 160.66 71.4868 160.66 71.4334 160.66C71.3801 160.66 71.3268 160.66 71.2734 160.66C69.9668 160.66 68.9534 160.927 68.2334 161.46C67.5401 161.967 67.1934 162.793 67.1934 163.94L65.2334 162.94C65.2334 161.9 65.4734 160.993 65.9534 160.22C66.4334 159.447 67.0868 158.86 67.9134 158.46C68.7401 158.033 69.6468 157.82 70.6334 157.82C70.6601 157.82 70.6868 157.82 70.7134 157.82C70.7668 157.82 70.8068 157.82 70.8334 157.82ZM64.7534 178.94C66.6468 178.94 68.1268 179.38 69.1934 180.26C70.2601 181.113 70.7934 182.26 70.7934 183.7C70.7934 185.007 70.3534 186.14 69.4734 187.1C68.6201 188.06 67.4601 188.793 65.9934 189.3C64.5534 189.833 62.9268 190.1 61.1134 190.1C57.9668 190.1 55.6068 189.567 54.0334 188.5C52.4868 187.433 51.7134 186.153 51.7134 184.66C51.7134 183.593 52.0601 182.633 52.7534 181.78C53.4734 180.953 54.6734 180.487 56.3534 180.38L56.0734 180.98C55.1668 180.74 54.3934 180.34 53.7534 179.78C53.1401 179.193 52.8334 178.353 52.8334 177.26C52.8334 176.167 53.2334 175.233 54.0334 174.46C54.8601 173.66 56.0734 173.167 57.6734 172.98L59.7934 174.06H59.3934C58.0868 174.193 57.1534 174.527 56.5934 175.06C56.0601 175.567 55.7934 176.127 55.7934 176.74C55.7934 177.487 56.0601 178.047 56.5934 178.42C57.1534 178.767 57.9268 178.94 58.9134 178.94H64.7534ZM61.0734 187.42C62.6201 187.42 63.8868 187.26 64.8734 186.94C65.8868 186.62 66.6334 186.207 67.1134 185.7C67.5934 185.193 67.8334 184.647 67.8334 184.06C67.8334 183.34 67.5401 182.767 66.9534 182.34C66.3934 181.913 65.3668 181.7 63.8734 181.7H57.7134C56.8601 181.7 56.1401 181.913 55.5534 182.34C54.9668 182.793 54.6734 183.407 54.6734 184.18C54.6734 185.167 55.2334 185.953 56.3534 186.54C57.5001 187.127 59.0734 187.42 61.0734 187.42ZM60.7934 161.1C62.3934 161.1 63.8068 161.393 65.0334 161.98C66.2868 162.54 67.2601 163.327 67.9534 164.34C68.6468 165.353 68.9934 166.527 68.9934 167.86C68.9934 169.167 68.6468 170.34 67.9534 171.38C67.2601 172.393 66.2868 173.193 65.0334 173.78C63.8068 174.34 62.3934 174.62 60.7934 174.62C58.1534 174.62 56.1268 173.993 54.7134 172.74C53.3001 171.46 52.5934 169.833 52.5934 167.86C52.5934 166.527 52.9401 165.353 53.6334 164.34C54.3534 163.327 55.3268 162.54 56.5534 161.98C57.7801 161.393 59.1934 161.1 60.7934 161.1ZM60.7934 163.7C59.4068 163.7 58.2468 164.087 57.3134 164.86C56.3801 165.607 55.9134 166.607 55.9134 167.86C55.9134 169.087 56.3801 170.087 57.3134 170.86C58.2468 171.633 59.4068 172.02 60.7934 172.02C62.1801 172.02 63.3401 171.633 64.2734 170.86C65.2068 170.087 65.6734 169.087 65.6734 167.86C65.6734 166.607 65.2068 165.607 64.2734 164.86C63.3401 164.087 62.1801 163.7 60.7934 163.7ZM83.6425 181.9C81.7492 181.9 80.0558 181.487 78.5625 180.66C77.0958 179.833 75.9492 178.647 75.1225 177.1C74.2958 175.527 73.8825 173.66 73.8825 171.5C73.8825 169.34 74.2958 167.487 75.1225 165.94C75.9492 164.367 77.0825 163.167 78.5225 162.34C79.9625 161.513 81.6025 161.1 83.4425 161.1C85.3092 161.1 86.8958 161.5 88.2025 162.3C89.5358 163.1 90.5492 164.193 91.2425 165.58C91.9358 166.94 92.2825 168.473 92.2825 170.18C92.2825 170.633 92.2692 171.047 92.2425 171.42C92.2158 171.793 92.1758 172.127 92.1225 172.42H75.9625V169.58H90.7225L89.0825 169.9C89.0825 167.98 88.5492 166.5 87.4825 165.46C86.4425 164.42 85.0692 163.9 83.3625 163.9C82.0558 163.9 80.9225 164.207 79.9625 164.82C79.0292 165.407 78.2958 166.273 77.7625 167.42C77.2558 168.54 77.0025 169.9 77.0025 171.5C77.0025 173.073 77.2692 174.433 77.8025 175.58C78.3358 176.727 79.0825 177.607 80.0425 178.22C81.0292 178.807 82.2025 179.1 83.5625 179.1C85.0292 179.1 86.2158 178.82 87.1225 178.26C88.0558 177.7 88.8025 176.94 89.3625 175.98L91.8825 177.46C91.3758 178.367 90.7225 179.153 89.9225 179.82C89.1492 180.487 88.2292 181.007 87.1625 181.38C86.1225 181.727 84.9492 181.9 83.6425 181.9ZM107.253 154.7C109.573 154.7 111.573 155.18 113.253 156.14C114.933 157.073 116.333 158.46 117.453 160.3L114.773 162.38C113.786 160.673 112.666 159.473 111.413 158.78C110.186 158.06 108.693 157.7 106.933 157.7C105.52 157.7 104.346 157.9 103.413 158.3C102.506 158.7 101.84 159.233 101.413 159.9C100.986 160.54 100.773 161.273 100.773 162.1C100.773 163.033 101.066 163.86 101.653 164.58C102.24 165.273 103.413 165.82 105.173 166.22L110.893 167.5C113.426 168.06 115.186 168.913 116.173 170.06C117.186 171.18 117.693 172.58 117.693 174.26C117.693 175.753 117.266 177.087 116.413 178.26C115.586 179.407 114.413 180.3 112.893 180.94C111.373 181.58 109.586 181.9 107.533 181.9C105.613 181.9 103.92 181.647 102.453 181.14C101.013 180.607 99.7731 179.9 98.7331 179.02C97.6931 178.14 96.8398 177.153 96.1731 176.06L98.9731 173.78C99.4798 174.793 100.133 175.687 100.933 176.46C101.733 177.233 102.693 177.833 103.813 178.26C104.96 178.687 106.266 178.9 107.733 178.9C109.093 178.9 110.266 178.74 111.253 178.42C112.266 178.073 113.04 177.58 113.573 176.94C114.106 176.273 114.373 175.473 114.373 174.54C114.373 173.687 114.093 172.927 113.533 172.26C112.973 171.567 111.92 171.047 110.373 170.7L104.173 169.3C102.546 168.927 101.226 168.42 100.213 167.78C99.2265 167.113 98.5065 166.34 98.0531 165.46C97.6265 164.553 97.4131 163.58 97.4131 162.54C97.4131 161.127 97.7998 159.833 98.5731 158.66C99.3731 157.46 100.506 156.5 101.973 155.78C103.466 155.06 105.226 154.7 107.253 154.7ZM124.398 181.5V155.1H142.918V158.1H127.598V166.62H139.518V169.62H127.598V178.5H143.518V181.5H124.398ZM159.226 155.1C161.013 155.1 162.559 155.433 163.866 156.1C165.199 156.74 166.239 157.66 166.986 158.86C167.733 160.06 168.106 161.487 168.106 163.14C168.106 164.793 167.733 166.22 166.986 167.42C166.239 168.62 165.199 169.553 163.866 170.22C162.559 170.86 161.013 171.18 159.226 171.18H153.106V181.5H149.906V155.1H159.226ZM158.746 168.18C160.826 168.18 162.346 167.753 163.306 166.9C164.266 166.02 164.746 164.767 164.746 163.14C164.746 161.487 164.266 160.233 163.306 159.38C162.346 158.527 160.826 158.1 158.746 158.1H153.106V168.18H158.746Z" fill="#E2E3E3"/>
<path d="M110.855 55.9574L86 131.5V80.2057L60.0645 71.8121L86 0V48.4965L110.855 55.9574Z" fill="#55D241"/>
<path d="M153 41.0355L128.145 102.589L105.452 94.195L119.5 55.0248L93.5645 46.6312V24.2482L153 41.0355Z" fill="#030BCE"/>
<path d="M76.2742 80.2057V104.454L19 87.6667L40.6129 26.1135L65.4677 32.6418L50.3387 72.7447L76.2742 80.2057Z" fill="#030BCE"/>
</svg>
